REM DIRINDEX 1\2,1\3
REM DIRNAME folder01,folder02,folder03
TITLE ""
FILE "Track14.mp3" MP3
  TRACK 01 AUDIO
    TITLE "0:"
    INDEX 01 00:00:00
  TRACK 02 AUDIO
    TITLE "3:cjc140_042"
    INDEX 01 00:00:11
  TRACK 03 AUDIO
    TITLE "2:cjc140_043"
    INDEX 01 00:01:71
  TRACK 04 AUDIO
    TITLE "2:cjc140_044"
    INDEX 01 00:12:65
  TRACK 05 AUDIO
    TITLE "0:"
    INDEX 01 00:22:27
